<svg xmlns="http://www.w3.org/2000/svg" xmlns:xlink="http://www.w3.org/1999/xlink" width="500" zoomAndPan="magnify" viewBox="0 0 375 374.999991" height="500" preserveAspectRatio="xMidYMid meet" version="1.0"><defs><clipPath id="394c8a3a8c"><path d="M 19.59375 19 L 354 19 L 354 356.25 L 19.59375 356.25 Z M 19.59375 19 " clip-rule="nonzero"/></clipPath></defs><g clip-path="url(#394c8a3a8c)"><path fill="#ffffff" d="M 97.007812 302.859375 C 95.824219 301.519531 94.851562 300.40625 93.867188 299.289062 C 85.558594 289.875 79.007812 279.390625 74.480469 267.648438 C 72.203125 261.746094 71.050781 255.554688 69.65625 249.425781 C 68.390625 243.859375 67.527344 238.226562 67.386719 232.523438 C 67.324219 229.832031 67.351562 227.117188 67.714844 224.453125 C 68.25 220.574219 71.753906 218.671875 75.417969 219.996094 C 77.03125 220.574219 78.265625 221.617188 79.230469 223.003906 C 84.835938 231.011719 91.582031 238.058594 98.101562 245.285156 C 105.804688 253.820312 114.507812 261.070312 124.945312 266.066406 C 127.90625 267.480469 130.859375 268.921875 134.34375 269.730469 C 135.507812 268.660156 136.734375 267.574219 137.90625 266.449219 C 161.441406 243.757812 183.808594 219.957031 205.425781 195.425781 C 208.890625 191.492188 212.527344 187.714844 216.070312 183.847656 C 217.691406 182.074219 219.292969 180.292969 220.820312 178.449219 C 223.105469 175.675781 225.269531 172.796875 227.582031 170.042969 C 234.902344 161.320312 242.285156 152.652344 249.613281 143.929688 C 252.3125 140.714844 254.851562 137.371094 257.566406 134.175781 C 258.925781 132.574219 259.386719 130.785156 259.308594 128.789062 C 259.253906 127.289062 259.085938 125.800781 258.933594 124.308594 C 257.34375 108.324219 258.296875 92.585938 263.480469 77.265625 C 264.246094 74.996094 265.054688 72.730469 266.046875 70.554688 C 274.21875 52.660156 286.585938 38.285156 302.84375 27.296875 C 308.859375 23.230469 315.480469 20.53125 322.753906 19.472656 C 327.757812 18.742188 332.621094 19.164062 337.40625 20.644531 C 349.222656 24.296875 355.386719 34.800781 352.828125 46.925781 C 351.574219 52.867188 349.203125 58.347656 345.410156 63.125 C 343.085938 66.058594 340.628906 68.898438 338.222656 71.765625 C 328.476562 83.355469 318.238281 94.496094 307.40625 105.082031 C 304.078125 108.324219 300.648438 111.464844 297.285156 114.660156 C 290.109375 121.460938 282.941406 128.273438 275.773438 135.085938 C 275.238281 135.589844 274.742188 136.144531 274.234375 136.667969 C 274.085938 139.21875 274.875 141.503906 275.378906 143.816406 C 279.109375 160.957031 284.074219 177.765625 288.882812 194.613281 C 292.496094 207.289062 296.078125 219.964844 298.746094 232.886719 C 300.695312 242.292969 302.019531 251.785156 302.550781 261.371094 C 303.105469 271.304688 302.335938 281.167969 299.722656 290.785156 C 295.589844 305.953125 287.289062 318.386719 275.453125 328.832031 C 261.175781 341.4375 244.375 347.640625 225.925781 350.347656 C 215.195312 351.921875 204.421875 352.128906 193.648438 351.097656 C 181.503906 349.933594 169.667969 347.46875 158.566406 342.121094 C 156.007812 340.882812 153.335938 339.863281 150.703125 338.792969 C 140.390625 334.613281 130.625 329.40625 121.527344 322.988281 C 117.609375 320.222656 113.730469 317.394531 109.832031 314.609375 C 108.992188 314.011719 108.117188 313.4375 107.070312 312.726562 C 105.832031 313.625 104.632812 314.480469 103.460938 315.378906 C 100.839844 317.375 98.1875 319.332031 95.609375 321.394531 C 90.449219 325.535156 84.703125 328.777344 79.128906 332.28125 C 71.90625 336.828125 64.726562 341.445312 57.261719 345.585938 C 50.964844 349.082031 44.554688 352.371094 37.582031 354.308594 C 34.574219 355.144531 31.4375 355.613281 28.335938 356.023438 C 26.882812 356.210938 25.328125 356.042969 23.894531 355.714844 C 21.496094 355.164062 20.042969 353.269531 19.863281 350.910156 C 19.675781 348.296875 20.941406 346.195312 23.433594 345.296875 C 24.398438 344.949219 25.476562 344.753906 26.5 344.761719 C 30.480469 344.789062 34.191406 343.683594 37.855469 342.328125 C 43.636719 340.179688 49.089844 337.351562 54.382812 334.222656 C 69.132812 325.5 82.71875 315.152344 95.882812 304.238281 C 96.191406 303.949219 96.425781 303.554688 97.007812 302.859375 Z M 152.417969 272.457031 C 153.234375 272.707031 153.515625 272.867188 153.804688 272.867188 C 159.792969 272.894531 165.800781 273.261719 171.730469 272.070312 C 172.171875 271.988281 172.621094 271.914062 173.0625 271.894531 C 175.804688 271.78125 178.175781 273.449219 178.84375 275.933594 C 179.59375 278.734375 178.34375 281.441406 175.617188 282.566406 C 174.382812 283.070312 173.042969 283.410156 171.710938 283.570312 C 168.742188 283.914062 165.753906 284.253906 162.753906 284.328125 C 156.609375 284.496094 150.453125 284.582031 144.351562 283.679688 C 142.253906 283.371094 140.6875 283.941406 139.105469 285.40625 C 133.398438 290.699219 127.984375 296.332031 121.554688 300.816406 C 120.507812 301.550781 119.242188 302.269531 118.980469 304.050781 C 120.703125 305.523438 122.425781 307.191406 124.347656 308.59375 C 130.523438 313.113281 136.929688 317.1875 143.742188 320.746094 C 155.519531 326.914062 167.851562 331.421875 180.78125 334.25 C 193.394531 337.003906 206.035156 339.113281 219.09375 337.566406 C 233.441406 335.878906 246.953125 331.945312 259.414062 324.589844 C 262.644531 322.679688 265.8125 320.644531 268.378906 317.871094 C 281.496094 303.65625 288.929688 287.128906 289.03125 267.546875 C 289.078125 258.964844 288.226562 250.484375 286.828125 242.050781 C 284.710938 229.328125 281.386719 216.875 277.9375 204.460938 C 273.09375 186.992188 267.582031 169.714844 263.386719 152.074219 C 263.265625 151.558594 262.925781 151.089844 262.582031 150.386719 C 261.925781 150.949219 261.4375 151.277344 261.054688 151.707031 C 253.933594 159.617188 246.859375 167.5625 239.691406 175.433594 C 230.703125 185.296875 222.253906 195.625 213.773438 205.921875 C 209.285156 211.363281 204.636719 216.628906 199.71875 221.679688 C 194.601562 226.9375 189.757812 232.464844 184.8125 237.890625 C 179.761719 243.429688 174.8125 249.058594 169.652344 254.492188 C 165.105469 259.273438 160.308594 263.796875 155.671875 268.484375 C 154.566406 269.589844 153.28125 270.628906 152.417969 272.457031 Z M 273.035156 119.867188 C 275.621094 118.265625 277.140625 116.617188 278.695312 115.023438 C 293.996094 99.40625 309.277344 83.765625 324.570312 68.136719 C 329.085938 63.527344 333.304688 58.675781 336.628906 53.117188 C 339.1875 48.855469 340.125 44.253906 339.414062 39.316406 C 338.757812 34.78125 336.554688 32.578125 332.027344 32.421875 C 326.125 32.214844 320.402344 33.03125 315.023438 35.726562 C 309.617188 38.4375 304.808594 41.957031 300.386719 46.042969 C 294.867188 51.152344 290.136719 56.949219 285.761719 63.039062 C 276.839844 75.457031 272.296875 89.324219 272.054688 104.585938 C 271.988281 108.476562 272.203125 112.371094 272.351562 116.261719 C 272.410156 117.265625 272.726562 118.257812 273.035156 119.867188 Z M 107.511719 293.726562 C 111.210938 291.503906 121.875 281.890625 124.207031 278.734375 C 124.027344 278.519531 123.886719 278.21875 123.652344 278.085938 C 122.605469 277.515625 121.535156 276.980469 120.460938 276.457031 C 111.136719 271.835938 102.589844 266.09375 95.339844 258.578125 C 91.179688 254.269531 87.148438 249.835938 83.035156 245.488281 C 82.25 244.664062 81.707031 243.492188 80.09375 243.183594 C 83.195312 263.507812 92.414062 280.203125 107.511719 293.726562 Z M 107.511719 293.726562 " fill-opacity="1" fill-rule="nonzero"/></g></svg>